<svg width="20" height="20" viewBox="0 0 20 20" fill="none" xmlns="http://www.w3.org/2000/svg">
<path fill-rule="evenodd" clip-rule="evenodd" d="M10 4.54513C8.11298 4.54513 5.54273 4.7069 3.91057 4.82585C3.36853 4.86536 2.94872 5.29444 2.94872 5.81852V6.41074L9.48116 9.84192C9.80383 10.0114 10.1962 10.0114 10.5189 9.84192L17.0513 6.41074V5.81852C17.0513 5.29444 16.6315 4.86536 16.0894 4.82585C14.4573 4.7069 11.887 4.54513 10 4.54513ZM17.0513 7.79736L11.1415 10.9015C10.4316 11.2744 9.56842 11.2744 8.85854 10.9015L2.94872 7.79736V14.1808C2.94872 14.7049 3.36853 15.134 3.91057 15.1735C5.54273 15.2924 8.11298 15.4542 10 15.4542C11.887 15.4542 14.4573 15.2924 16.0894 15.1735C16.6315 15.134 17.0513 14.7049 17.0513 14.1808V7.79736ZM3.81203 3.61732C5.44518 3.49829 8.0589 3.33301 10 3.33301C11.9411 3.33301 14.5548 3.49829 16.188 3.61732C17.4085 3.70627 18.3333 4.67125 18.3333 5.81852V14.1808C18.3333 15.3281 17.4085 16.2931 16.188 16.382C14.5548 16.5011 11.9411 16.6663 10 16.6663C8.0589 16.6663 5.44518 16.5011 3.81203 16.382C2.59152 16.2931 1.66667 15.3281 1.66667 14.1808V5.81852C1.66667 4.67125 2.59152 3.70627 3.81203 3.61732Z" fill="white"/>
</svg>
